<svg width="48" height="48" viewBox="0 0 48 48" fill="none" xmlns="http://www.w3.org/2000/svg">
  <!-- Background circle -->
  <circle cx="24" cy="24" r="24" fill="url(#gradient1)"/>
  
  <!-- Wine glass base -->
  <path d="M16 32C16 30.8954 16.8954 30 18 30H30C31.1046 30 32 30.8954 32 32V36C32 37.1046 31.1046 38 30 38H18C16.8954 38 16 37.1046 16 36V32Z" fill="white"/>
  
  <!-- Wine glass stem -->
  <rect x="22" y="24" width="4" height="6" fill="white"/>
  
  <!-- Wine glass bowl -->
  <path d="M20 20C20 18.8954 20.8954 18 22 18H26C27.1046 18 28 18.8954 28 20V24H20V20Z" fill="white"/>
  
  <!-- Wine liquid -->
  <path d="M21 21C21 20.4477 21.4477 20 22 20H26C26.5523 20 27 20.4477 27 21V23H21V21Z" fill="#F0751A"/>
  
  <!-- Fork -->
  <path d="M32 16C32 14.8954 31.1046 14 30 14H28C26.8954 14 26 14.8954 26 16V28C26 29.1046 26.8954 30 28 30H30C31.1046 30 32 29.1046 32 28V16Z" fill="white"/>
  <path d="M30 12C30 10.8954 29.1046 10 28 10H26C24.8954 10 24 10.8954 24 12V14H30V12Z" fill="white"/>
  
  <!-- Knife -->
  <path d="M36 18C36 16.8954 35.1046 16 34 16H32C30.8954 16 30 16.8954 30 18V30C30 31.1046 30.8954 32 32 32H34C35.1046 32 36 31.1046 36 30V18Z" fill="white"/>
  <path d="M34 14C34 12.8954 33.1046 12 32 12H30C28.8954 12 28 12.8954 28 14H34Z" fill="white"/>
  
  <!-- Location pin -->
  <circle cx="24" cy="42" r="3" fill="#22C55E"/>
  
  <!-- Gradients -->
  <defs>
    <linearGradient id="gradient1" x1="0%" y1="0%" x2="100%" y2="100%">
      <stop offset="0%" style="stop-color:#F0751A;stop-opacity:1" />
      <stop offset="100%" style="stop-color:#E15A0F;stop-opacity:1" />
    </linearGradient>
  </defs>
</svg>

